<?xml version="1.0" standalone="no"?>
<!DOCTYPE svg PUBLIC "-//W3C//DTD SVG 20010904//EN"
 "http://www.w3.org/TR/2001/REC-SVG-20010904/DTD/svg10.dtd">
<svg version="1.0" xmlns="http://www.w3.org/2000/svg"
 width="500.000000pt" height="500.000000pt" viewBox="0 0 500.000000 500.000000"
 preserveAspectRatio="xMidYMid meet">
<metadata>
Created by potrace 1.14, written by Peter Selinger 2001-2017
</metadata>
<g transform="translate(0.000000,500.000000) scale(0.100000,-0.100000)"
fill="#000000" stroke="none">
<path d="M3088 4215 c-2 -2 -37 -6 -78 -9 -41 -3 -86 -9 -100 -14 -17 -6 -35
-5 -58 5 -19 8 -31 9 -27 4 4 -8 -2 -8 -19 -1 -14 5 -26 6 -26 2 0 -4 -37 -7
-83 -6 -45 0 -86 -2 -92 -5 -5 -3 -21 -7 -34 -9 -14 -2 -36 -9 -50 -17 -26
-13 -57 -26 -76 -30 -5 -2 -28 -8 -51 -14 -44 -12 -134 -15 -201 -7 -31 4 -63
-3 -125 -25 -64 -24 -105 -32 -178 -36 -184 -9 -205 -11 -225 -18 -18 -6 -40
-14 -88 -29 -9 -3 -19 -5 -22 -5 -9 0 -218 -113 -250 -135 -16 -11 -38 -28
-48 -37 -10 -9 -42 -19 -70 -22 -88 -9 -131 -17 -137 -26 -5 -7 -42 -24 -48
-21 -1 0 -9 -5 -16 -12 -7 -7 -30 -26 -51 -43 -46 -38 -61 -51 -77 -73 -7 -10
-32 -32 -55 -50 -23 -18 -45 -41 -48 -51 -3 -11 -18 -24 -34 -31 -35 -14 -69
-52 -83 -91 -5 -16 -14 -29 -19 -29 -13 0 -64 -38 -106 -77 -18 -18 -37 -33
-41 -33 -4 0 -26 -17 -49 -38 -48 -43 -76 -99 -77 -159 -1 -34 -9 -51 -37 -81
-30 -33 -62 -89 -61 -106 1 -3 -5 -17 -12 -30 -7 -14 -12 -45 -12 -71 1 -25
-3 -45 -7 -45 -5 0 -6 -4 -2 -9 7 -12 -26 -121 -37 -121 -4 0 -8 -13 -8 -28 0
-16 -3 -32 -7 -36 -11 -11 -10 -40 2 -48 6 -5 6 -8 -1 -8 -13 0 -5 -51 14 -86
11 -20 11 -36 -1 -64 -6 -13 -3 -85 3 -100 1 -3 2 -9 1 -14 -1 -6 4 -26 12
-45 20 -48 40 -118 40 -136 0 -8 3 -15 7 -15 3 0 6 -10 7 -22 1 -11 6 -24 10
-27 5 -3 14 -18 20 -33 19 -43 126 -160 151 -166 8 -1 27 -12 43 -24 25 -19
43 -22 122 -22 51 0 112 3 137 8 25 4 102 10 172 11 69 2 143 8 164 14 20 6
41 8 45 6 4 -3 9 -1 11 5 1 5 14 11 28 14 14 2 25 5 25 6 0 1 9 3 20 5 17 3
46 9 101 21 6 1 26 5 44 9 31 7 33 6 26 -16 -16 -54 -17 -66 -17 -114 0 -27 6
-69 15 -93 8 -23 15 -46 15 -50 0 -19 76 -92 106 -102 20 -6 33 -15 31 -19 -3
-4 16 -20 41 -36 35 -22 58 -29 102 -30 39 0 66 -7 91 -23 19 -12 46 -23 60
-24 93 -5 90 -6 288 47 58 15 87 15 152 -1 56 -13 86 -14 110 -3 71 33 91 45
126 76 37 31 64 42 64 25 0 -22 166 -81 218 -77 13 1 22 -4 22 -12 0 -7 3 -13
8 -13 4 0 14 -15 21 -32 21 -48 96 -162 123 -188 36 -34 117 -85 183 -116 33
-16 66 -34 73 -41 8 -8 29 -20 47 -27 37 -16 53 -28 143 -114 37 -34 75 -62
87 -62 11 0 36 13 55 28 19 16 49 34 67 41 33 13 66 45 76 72 6 17 -114 149
-136 149 -7 0 -3 6 8 12 11 7 46 13 77 14 32 1 63 6 70 11 7 5 36 9 63 7 48
-2 105 19 105 38 0 4 3 7 8 7 30 -5 61 5 84 26 15 14 32 25 38 25 5 0 10 4 10
8 0 4 38 27 85 51 47 24 85 48 85 52 0 5 4 9 9 9 27 0 125 126 137 175 4 16
13 36 21 43 7 7 13 21 14 30 1 20 5 46 14 81 4 14 6 28 5 30 -1 2 3 7 9 10 6
4 13 24 15 44 3 21 8 42 11 46 3 5 6 28 7 50 1 37 4 41 28 41 74 0 196 69 234
132 9 15 24 34 32 43 9 8 17 21 18 28 1 6 12 28 24 47 12 19 22 41 22 48 0 6
4 12 9 12 10 0 38 55 43 85 1 11 6 22 10 25 12 9 21 62 25 147 4 68 1 88 -17
122 l-21 42 21 26 c26 34 27 110 1 156 -19 34 -35 110 -32 155 2 46 -47 109
-92 118 -25 4 -38 22 -36 49 1 11 0 22 -1 25 -1 3 -4 16 -6 30 -3 13 -9 29
-14 34 -4 4 -6 15 -3 22 3 8 -1 14 -9 14 -9 0 -27 14 -42 32 -14 17 -26 29
-26 26 0 -4 -16 9 -35 28 -20 19 -42 35 -50 35 -36 3 -40 5 -37 21 1 10 -6 34
-17 55 -19 37 -29 49 -98 112 -18 17 -33 35 -33 41 0 5 -4 10 -9 10 -5 0 -12
8 -15 18 -3 9 -14 22 -25 27 -10 6 -36 20 -59 32 -22 12 -56 23 -75 25 -30 2
-39 8 -58 42 -32 57 -104 132 -142 147 -18 7 -34 15 -37 19 -10 12 -86 68
-106 78 -12 6 -41 14 -65 17 -23 3 -56 13 -73 22 -89 47 -146 71 -186 81 -44
10 -131 9 -150 -3 -5 -3 -13 3 -19 12 -6 10 -11 14 -11 9 0 -4 -15 3 -32 16
-18 14 -44 29 -58 33 -14 4 -30 11 -35 16 -12 9 -61 19 -67 14z"/>
</g>
</svg>
